<?xml version="1.0" encoding="UTF-8"?>
<svg width="42px" height="26px" viewBox="0 0 42 26" version="1.1" xmlns="http://www.w3.org/2000/svg" xmlns:xlink="http://www.w3.org/1999/xlink">
    <title>C7F83E6F-2F60-47C8-8836-213BB3500CBB</title>
    <g id="Page-1" stroke="none" stroke-width="1" fill="none" fill-rule="evenodd">
        <g id="checkout-new" transform="translate(-65.000000, -670.000000)" fill-rule="nonzero">
            <g id="Group-18" transform="translate(0.000000, 623.000000)">
                <g id="Group-4-Copy" transform="translate(16.000000, 32.000000)">
                    <g id="mastercard" transform="translate(49.000000, 15.000000)">
                        <rect id="Rectangle" fill="#FF5F00" x="14.7546419" y="2.77978061" width="12.4960184" height="20.4382352"></rect>
                        <path d="M42,13.0007034 C42,17.9769968 39.1624091,22.5163971 34.6926613,24.6910035 C30.2229135,26.8656099 24.9056162,26.2936416 20.9990458,23.2180158 C24.1301169,20.7538859 25.958261,16.9867537 25.958261,12.9988982 C25.958261,9.01104272 24.1301169,5.24391049 20.9990458,2.77978061 C24.9056162,-0.295845182 30.2229135,-0.867813436 34.6926613,1.30679296 C39.1624091,3.48139936 42,8.02079962 42,12.997093 L42,13.0007034 Z" id="Path" fill="#F79E1B"></path>
                        <path d="M16.041739,13.0007034 C16.0386014,9.01306379 17.8666079,5.24543064 20.9990458,2.78339097 C15.6775267,-1.40460532 8.03561187,-0.794587447 3.44383366,4.18474043 C-1.14794455,9.1640683 -1.14794455,16.8409488 3.44383366,21.8202767 C8.03561187,26.7996046 15.6775267,27.4096225 20.9990458,23.2216262 C17.8656111,20.7588047 16.0374929,16.9896099 16.041739,13.0007034 Z" id="Path" fill="#EB001B"></path>
                    </g>
                </g>
            </g>
        </g>
    </g>
</svg>