<?xml version="1.0" encoding="UTF-8"?>
<svg width="35px" height="55px" viewBox="0 0 35 55" version="1.1" xmlns="http://www.w3.org/2000/svg" xmlns:xlink="http://www.w3.org/1999/xlink">
    <title>3C5F1ADB-EE53-4F07-9567-1F55CD8C068F</title>
    <defs>
        <linearGradient x1="50%" y1="0%" x2="50%" y2="100%" id="linearGradient-1">
            <stop stop-color="#63E7C1" offset="0%"></stop>
            <stop stop-color="#37BD87" offset="100%"></stop>
        </linearGradient>
        <linearGradient x1="50%" y1="0%" x2="50%" y2="100%" id="linearGradient-2">
            <stop stop-color="#63E7C1" offset="0%"></stop>
            <stop stop-color="#37BD87" offset="100%"></stop>
        </linearGradient>
        <linearGradient x1="50%" y1="0%" x2="50%" y2="100%" id="linearGradient-3">
            <stop stop-color="#B4FEE2" offset="0%"></stop>
            <stop stop-color="#DBFFF2" offset="100%"></stop>
        </linearGradient>
        <linearGradient x1="50%" y1="25.5140106%" x2="50%" y2="100%" id="linearGradient-4">
            <stop stop-color="#20A771" offset="0%"></stop>
            <stop stop-color="#2ABD92" offset="100%"></stop>
        </linearGradient>
    </defs>
    <g id="front-page" stroke="none" stroke-width="1" fill="none" fill-rule="evenodd">
        <g id="checkout" transform="translate(-632, -1148)">
            <g id="secure" transform="translate(632, 1148)">
                <path d="M17.3651565,0 C24.2395918,0 29.8124227,5.8457144 29.8124227,13.0567685 L29.8124227,17.5 L25.8617686,17.5 L25.8617686,13.0567685 C25.8617686,7.41333486 21.7216997,4.1441048 17.3651565,4.1441048 C13.0086134,4.1441048 8.86854446,7.41333486 8.86854446,13.0567685 L8.86854446,17.5 L4.91789043,17.5 L4.91789043,13.0567685 C4.91789043,5.8457144 10.4907213,0 17.3651565,0 Z" id="Path" fill="url(#linearGradient-1)"></path>
                <path d="M1.2833342,16.8069413 L17.4261726,14.995098 L17.4261726,14.995098 L33.5690109,16.8069413 C34.2998235,16.8889664 34.8523451,17.5069713 34.8523451,18.2423726 L34.8523451,33.8556455 C34.8523451,39.9505493 31.6512204,45.5975779 26.4216649,48.7280095 L17.4261726,54.1127451 L17.4261726,54.1127451 L8.4306802,48.7280095 C3.20112471,45.5975779 -6.35901691e-15,39.9505493 -7.10542736e-15,33.8556455 L6.66133815e-16,18.2423726 C5.76073126e-16,17.5069713 0.552521638,16.8889664 1.2833342,16.8069413 Z" id="Rectangle" fill="url(#linearGradient-2)"></path>
                <path d="M3.80049457,18.8667556 L17.4261726,17.6029412 L17.4261726,17.6029412 L17.4261726,50.4754902 L11.5614419,47.2958885 C5.9713032,44.2651585 2.48945322,38.4168047 2.48945322,32.0579546 L2.48945322,20.3050266 C2.48945322,19.5589676 3.05762424,18.9356586 3.80049457,18.8667556 Z" id="Rectangle-Copy" fill="url(#linearGradient-3)" opacity="0.399999976"></path>
                <path d="M17.4261726,25.4264706 C19.8322249,25.4264706 21.7827157,27.4697201 21.7827157,29.9901961 C21.7827157,31.5410112 21.0443035,32.9111591 19.9156986,33.7358601 L19.9156258,38.5840762 C19.9156258,39.9589632 18.8010596,41.0735294 17.4261726,41.0735294 C16.0512855,41.0735294 14.9367193,39.9589632 14.9367193,38.5840762 L14.9366465,33.7358601 C13.8080416,32.9111591 13.0696294,31.5410112 13.0696294,29.9901961 C13.0696294,27.4697201 15.0201202,25.4264706 17.4261726,25.4264706 Z" id="Combined-Shape" fill="url(#linearGradient-4)"></path>
            </g>
        </g>
    </g>
</svg>