<?xml version="1.0" encoding="UTF-8"?>
<svg width="53px" height="18px" viewBox="0 0 53 18" version="1.1" xmlns="http://www.w3.org/2000/svg" xmlns:xlink="http://www.w3.org/1999/xlink">
    <title>D02D96EB-276D-44A7-910E-11DDE3498F17</title>
    <defs>
        <linearGradient x1="45.9741966%" y1="-9.75768987%" x2="54.8768726%" y2="107.452495%" id="linearGradient-1">
            <stop stop-color="#222357" offset="0%"></stop>
            <stop stop-color="#254AA5" offset="100%"></stop>
        </linearGradient>
    </defs>
    <g id="front-page" stroke="none" stroke-width="1" fill="none" fill-rule="evenodd">
        <g id="checkout-share---digital-product---payment-method" transform="translate(-812, -514)" fill="url(#linearGradient-1)" fill-rule="nonzero">
            <g id="Group-Copy" transform="translate(548, 24)">
                <g id="Group-19-Copy-2" transform="translate(24, 434)">
                    <g id="Group-2" transform="translate(181.4634, 41)">
                        <g id="visa-2" transform="translate(59.2683, 15)">
                            <path d="M26.8931597,12.2454901 C26.8634917,9.73814392 28.9777191,8.33885064 30.5704163,7.50697414 C32.2068346,6.65333827 32.7564711,6.10600705 32.7502252,5.34275616 C32.7377334,4.1744467 31.4448381,3.6589176 30.2347006,3.63883205 C28.1235963,3.60368233 26.8962824,4.24976752 25.9203653,4.73851589 L25.1599305,0.923935278 C26.1389706,0.440208292 27.9518348,0.0184117537 29.831842,0 C34.2445498,0 37.1317038,2.33494512 37.1473186,5.95536544 C37.1644947,10.5499349 31.2184255,10.8043518 31.2590235,12.8580993 C31.2730767,13.4807513 31.8273979,14.1452483 33.0422196,14.3143016 C33.6433847,14.3996652 35.3032251,14.4649432 37.1847938,13.5359866 L37.923368,17.2267063 C36.9115368,17.6217221 35.6108342,18 33.9915922,18 C29.8380879,18 26.9165817,15.6332528 26.8931597,12.2454901 M45.0202391,17.6819788 C44.2145216,17.6819788 43.5352832,17.1781663 43.2323584,16.4048726 L36.9287128,0.271154918 L41.338298,0.271154918 L42.2158429,2.87055979 L47.6044682,2.87055979 L48.1135066,0.271154918 L52,0.271154918 L48.608492,17.6819788 L45.0202391,17.6819788 M45.6370188,12.9786126 L46.909615,6.44076621 L43.424419,6.44076621 L45.6370188,12.9786126 M21.5466938,17.6819788 L18.0708666,0.271154918 L22.2727763,0.271154918 L25.7470421,17.6819788 L21.5466938,17.6819788 M15.3304907,17.6819788 L10.9568195,5.83150453 L9.18767641,15.9077553 C8.9800012,17.0325459 8.16023063,17.6819788 7.2498949,17.6819788 L0.099933938,17.6819788 L1.26298971e-12,17.1764924 C1.46777972,16.8350381 3.1354273,16.2843592 4.14569695,15.6951831 C4.7640382,15.335317 4.94048405,15.0206434 5.14347486,14.1653338 L8.49438472,0.271154918 L12.9351991,0.271154918 L19.7431986,17.6819788 L15.3304907,17.6819788" id="visa" transform="translate(26, 9) scale(-1, 1) rotate(-180) translate(-26, -9)"></path>
                        </g>
                    </g>
                </g>
            </g>
        </g>
    </g>
</svg>