<?xml version="1.0" encoding="UTF-8"?>
<svg width="16px" height="16px" viewBox="0 0 16 16" version="1.1" xmlns="http://www.w3.org/2000/svg" xmlns:xlink="http://www.w3.org/1999/xlink">
    <title>DCD12CA1-46D6-454E-A866-D383C659B66D</title>
    <g id="chat" stroke="none" stroke-width="1" fill="none" fill-rule="evenodd">
        <g id="thank-you-screen" transform="translate(-236.000000, -522.000000)" fill="#FFFFFF" fill-rule="nonzero">
            <g id="Group-2" transform="translate(40.000000, 510.000000)">
                <g id="instagram" transform="translate(196.000000, 12.000000)">
                    <path d="M9.13566984,0.000551864769 C9.88001605,0.00298494932 10.2786037,0.00890692185 10.6421327,0.0210498776 L10.8224141,0.0276524194 C10.9726114,0.0336076313 11.1257122,0.0407219286 11.304192,0.0491929456 C12.1545447,0.086679119 12.7361014,0.22416911 13.2456047,0.421124102 C13.7770904,0.621131737 14.2616803,0.936894667 14.6618822,1.34325935 C15.0714876,1.74339669 15.3841263,2.22473372 15.5873414,2.76236105 C15.7843282,3.26885162 15.9218403,3.85336718 15.9593326,4.70358273 C15.9655813,4.84581444 15.9708767,4.9718944 15.9753631,5.09331346 L15.984153,5.3634888 C15.9942145,5.72616276 15.9979676,6.1244519 15.999305,6.86860916 L15.9999812,7.73954665 L15.9999812,7.73954665 L16,8.00138846 C16,8.0919088 15.9999837,8.17912955 15.9999497,8.26323027 L15.9991299,8.94074331 C15.9971509,9.81169617 15.9914991,10.2463913 15.9792051,10.6392881 L15.9730484,10.8190935 C15.9675068,10.968852 15.9609151,11.1214046 15.9531042,11.2991942 C15.915612,12.1494097 15.7779777,12.7308727 15.5811131,13.2404159 C15.1652792,14.3156705 14.3149266,15.1658861 13.2393764,15.5816528 C12.7329262,15.7786078 12.1483163,15.9160978 11.2979637,15.953584 C11.0845817,15.962986 10.907547,15.9706176 10.7280717,15.9767762 L10.5463463,15.982455 C10.2064242,15.9920063 9.81484218,15.9969405 9.13258799,15.9990916 L8.73018576,16 C8.65783536,16.0001091 8.58272357,16.0001979 8.5046708,16.0002678 L7.49457882,16.0002678 C7.41652531,16.0001979 7.34141261,16.0001091 7.26906118,16 L6.86665137,15.9990916 C6.12235659,15.9967449 5.72397428,15.9910861 5.36124721,15.9797342 L5.09103951,15.9701156 C4.96960933,15.9653332 4.8435226,15.959852 4.7012883,15.953584 C3.85081352,15.9160978 3.2693789,15.7786078 2.75975349,15.5816528 C2.2282678,15.3816452 1.74367791,15.0658822 1.34347603,14.6595176 C0.937045791,14.2593802 0.621354013,13.7780432 0.418138896,13.2404159 C0.221152134,12.7339253 0.0835178801,12.1494097 0.0460256601,11.2991942 C0.0163443192,10.6235936 0.00426714567,10.3124168 0.000523242664,9.13416776 L0.000551953788,6.86858045 C0.0029854308,6.12435429 0.00890835857,5.72583092 0.0210532731,5.36236052 L0.0276568798,5.18210821 C0.0336130523,5.03193519 0.0407284972,4.87885905 0.0492008806,4.70040802 C0.0866931007,3.85019247 0.224205269,3.26885162 0.421192031,2.75930841 C0.621354013,2.22790843 0.937045791,1.74339669 1.34347603,1.34325935 C1.74367791,0.933719958 2.22509258,0.621131737 2.76292871,0.417949394 C3.2693789,0.221116467 3.85398874,0.0835044105 4.70434143,0.0460182372 C5.38005103,0.0163416832 5.69127803,0.00426645747 6.86971709,0.000523158276 Z M8.50569086,1.45287192 L7.51287744,1.45287192 C6.36366496,1.45393239 5.86909055,1.45927367 5.42544903,1.47345682 L5.24927784,1.47961246 C5.10234719,1.48515315 4.95213197,1.49174384 4.77627274,1.49955346 C3.99785135,1.53398699 3.57261396,1.66524963 3.29123919,1.77465551 C2.94416146,1.90274344 2.63152282,2.10592579 2.37213041,2.37162577 C2.10321234,2.62804577 1.89999723,2.94368663 1.77176655,3.29070838 C1.66234302,3.57203778 1.53105921,3.99403188 1.49674221,4.77550243 C1.4889059,4.95067191 1.48229931,5.10047179 1.47675017,5.2471751 L1.47058777,5.4231582 C1.45828786,5.80741155 1.45267055,6.23095843 1.45070807,7.0852697 L1.45005081,7.51157951 C1.44991087,7.6648287 1.44984642,7.82969898 1.44984642,8.00761581 L1.44989614,8.26486909 C1.44992974,8.34747249 1.44998084,8.4269878 1.45005081,8.50359388 L1.45070807,8.92975049 C1.45267055,9.78365023 1.45828786,10.2063437 1.47058777,10.5907766 L1.47675017,10.7669213 C1.48229931,10.9138294 1.4889059,11.0640204 1.49674221,11.2398513 C1.53105921,12.0181471 1.66234302,12.4433159 1.77176655,12.7246453 C1.89999723,13.071545 2.10321234,13.3841332 2.36895519,13.6436058 C2.62529446,13.9093058 2.94110832,14.1124882 3.28806396,14.2406982 C3.56943874,14.350104 3.99150091,14.4813667 4.77309752,14.5156782 C4.91327605,14.5219462 5.03721203,14.5274273 5.15631165,14.5322098 L5.42093645,14.5418284 C5.83485023,14.5550723 6.29431313,14.5605672 7.28836592,14.5620942 L8.72321227,14.5620942 C9.71688772,14.5605672 10.1752928,14.5550723 10.5893348,14.5418284 L10.7654965,14.535667 C10.9124199,14.5301187 11.0626298,14.5235132 11.2384891,14.5156782 C12.0170325,14.4813667 12.4421478,14.350104 12.7235226,14.2406982 C13.4207312,13.9718235 13.9740772,13.4185667 14.2429952,12.7214706 C14.3524188,12.4401412 14.4837026,12.0181471 14.5181417,11.2366765 C14.5259525,11.0608457 14.5325443,10.9107925 14.5380859,10.7641026 L14.5442425,10.5882546 C14.5565366,10.2045322 14.5621883,9.78293739 14.5641673,8.92951533 L14.5649871,8.26485302 L14.5649871,8.26485302 L14.5650375,8.00761581 C14.5650375,7.91865739 14.5650211,7.83296613 14.5649871,7.75036314 L14.5641673,7.08549017 C14.5621883,6.2316088 14.5565366,5.80895757 14.5442425,5.42455196 L14.5380859,5.24841867 C14.5325443,5.101519 14.5259525,4.95133331 14.5181417,4.77550243 C14.4837026,3.99708452 14.3524188,3.57203778 14.2429952,3.29070838 C14.1147646,2.94368663 13.9115495,2.63109841 13.6458066,2.37162577 C13.3894673,2.10592579 13.0736535,1.90274344 12.7266978,1.77465551 C12.4453231,1.66524963 12.0232609,1.53398699 11.2416643,1.49955346 C11.0664411,1.49174384 10.9167347,1.48515315 10.7701813,1.47961246 L10.5943993,1.47345682 C10.1515715,1.45927367 9.65661009,1.45393239 8.50569086,1.45287192 Z M8.00267911,3.89085335 C10.2724845,3.89085335 12.1138773,5.73194915 12.1138773,8.00138846 C12.1138773,10.2708278 10.2724845,12.1119236 8.00267911,12.1119236 C5.73299582,12.1119236 3.89148096,10.2708278 3.89148096,8.00138846 C3.89148096,5.73194915 5.73299582,3.89085335 8.00267911,3.89085335 Z M8.00267911,5.33498652 C6.53022436,5.33498652 5.33584707,6.52904911 5.33584707,8.00138846 C5.33584707,9.4737278 6.53022436,10.6677904 8.00267911,10.6677904 C9.47525595,10.6677904 10.6695111,9.4737278 10.6695111,8.00138846 C10.6695111,6.52904911 9.47525595,5.33498652 8.00267911,5.33498652 Z M12.2764249,2.76871047 C12.8065672,2.76871047 13.2363232,3.19827508 13.2363232,3.72833189 C13.2363232,4.25826661 12.8065672,4.68795332 12.2764249,4.68795332 C11.7464047,4.68795332 11.3166487,4.25826661 11.3166487,3.72833189 C11.3166487,3.19827508 11.7464047,2.76871047 12.2764249,2.76871047 Z" id="Combined-Shape"></path>
                </g>
            </g>
        </g>
    </g>
</svg> 